<svg xmlns="http://www.w3.org/2000/svg" width="750" height="1020" viewBox="0 0 750 1020">
<defs>
<style>
text { font-family: Arial, sans-serif; }
.section-title { font-weight: bold; font-size: 16px; }
.content-text { font-size: 13px; }
</style>
</defs>
<rect width="750" height="1020" fill="white"/>
<rect x="50" y="50" width="650" height="110" fill="white" stroke="rgb(76,175,80)" stroke-width="2.5" rx="6"/>
<text x="65" y="75" class="section-title" fill="rgb(76,175,80)">IDENTIFICACIÓN</text>
<text x="65" y="98" class="content-text" fill="black">Bases de datos: 1430</text>
<text x="65" y="118" class="content-text" fill="black">Otros métodos: 45</text>
<text x="65" y="138" class="content-text" fill="black">Total identificados: 1475</text>
<line x1="375" y1="160" x2="375" y2="320" stroke="rgb(100,100,100)" stroke-width="2.5"/>
<polygon points="375,320 365,310 385,310" fill="rgb(100,100,100)"/>
<rect x="50" y="320" width="650" height="110" fill="white" stroke="rgb(255,193,7)" stroke-width="2.5" rx="6"/>
<text x="65" y="345" class="section-title" fill="rgb(255,193,7)">CRIBADO</text>
<text x="65" y="368" class="content-text" fill="black">Duplicados eliminados: 312</text>
<text x="65" y="388" class="content-text" fill="black">Otros eliminados: 25</text>
<text x="65" y="408" class="content-text" fill="black">Registros cribados: 1138</text>
<text x="65" y="428" class="content-text" fill="black">Excluidos en cribado: 1044</text>
<line x1="375" y1="430" x2="375" y2="590" stroke="rgb(100,100,100)" stroke-width="2.5"/>
<polygon points="375,590 365,580 385,580" fill="rgb(100,100,100)"/>
<rect x="50" y="590" width="650" height="110" fill="white" stroke="rgb(156,39,176)" stroke-width="2.5" rx="6"/>
<text x="65" y="615" class="section-title" fill="rgb(156,39,176)">ELEGIBILIDAD</text>
<text x="65" y="638" class="content-text" fill="black">Reportes buscados: 94</text>
<text x="65" y="658" class="content-text" fill="black">No recuperados: 4</text>
<text x="65" y="678" class="content-text" fill="black">Evaluados a texto completo: 90</text>
<text x="65" y="698" class="content-text" fill="black">Excluidos: 53</text>
<line x1="375" y1="700" x2="375" y2="860" stroke="rgb(100,100,100)" stroke-width="2.5"/>
<polygon points="375,860 365,850 385,850" fill="rgb(100,100,100)"/>
<rect x="50" y="860" width="650" height="110" fill="white" stroke="rgb(33,150,243)" stroke-width="2.5" rx="6"/>
<text x="65" y="885" class="section-title" fill="rgb(33,150,243)">INCLUSIÓN</text>
<text x="65" y="908" class="content-text" fill="black">Síntesis cualitativa: 37</text>
<text x="65" y="928" class="content-text" fill="black">Meta-análisis: 29</text>
</svg>